<mxfile host="www.draw.io" modified="2019-11-29T16:34:43.862Z" agent="Mozilla/5.0 (Windows NT 10.0; Win64; x64) AppleWebKit/537.36 (KHTML, like Gecko) Chrome/78.0.3904.108 Safari/537.36" etag="Slwp95UjXOWru84-cZtS" version="12.3.3" type="gitlab" pages="1">
  <diagram id="DHU9TvgpCcMTtREBSmTR" name="Page-1">
    <mxGraphModel dx="922" dy="1941" grid="1" gridSize="10" guides="1" tooltips="1" connect="1" arrows="1" fold="1" page="1" pageScale="1" pageWidth="827" pageHeight="1169" math="0" shadow="0">
      <root>
        <mxCell id="0"/>
        <mxCell id="1" parent="0"/>
        <mxCell id="1LGlpPfX4pICpEShjhQJ-1" value="&lt;br&gt;&lt;br&gt;&lt;br&gt;&lt;br&gt;&lt;br&gt;&lt;br&gt;&lt;br&gt;&lt;br&gt;&lt;br&gt;&lt;br&gt;&lt;br&gt;&lt;br&gt;&lt;br&gt;&lt;br&gt;&lt;br&gt;&lt;br&gt;&lt;br&gt;&lt;br&gt;&lt;br&gt;&lt;br&gt;&lt;br&gt;&lt;br&gt;&lt;br&gt;&lt;br&gt;&lt;br&gt;&lt;br&gt;&lt;br&gt;&lt;br&gt;&lt;br&gt;&lt;br&gt;&lt;br&gt;&lt;br&gt;&lt;br&gt;&lt;br&gt;&lt;br&gt;VMware ESXi hostname: i8c-lab-02.iconos.be" style="whiteSpace=wrap;html=1;" parent="1" vertex="1">
          <mxGeometry x="50" y="160" width="570" height="530" as="geometry"/>
        </mxCell>
        <mxCell id="1LGlpPfX4pICpEShjhQJ-2" value="xxx.xxx.xxx.xxx&lt;br&gt;&lt;br&gt;bastion&lt;br&gt;(DNS, DHCP, HAProxy, TFTP, Matchbox)&lt;br&gt;&lt;br&gt;192.168.67.1" style="whiteSpace=wrap;html=1;aspect=fixed;" parent="1" vertex="1">
          <mxGeometry x="90" y="290" width="140" height="140" as="geometry"/>
        </mxCell>
        <mxCell id="1LGlpPfX4pICpEShjhQJ-3" value="" style="pointerEvents=1;shadow=0;dashed=0;html=1;strokeColor=none;fillColor=#434445;aspect=fixed;labelPosition=center;verticalLabelPosition=bottom;verticalAlign=top;align=center;outlineConnect=0;shape=mxgraph.vvd.ethernet_port;direction=south;rotation=90;gradientColor=none;" parent="1" vertex="1">
          <mxGeometry x="162.5" y="142.5" width="35" height="35" as="geometry"/>
        </mxCell>
        <mxCell id="cXb8icBzrVfv2w_FcFVm-13" value="vSwitch with uplink" style="html=1;fillColor=#CCCCCC;strokeColor=#6881B3;gradientColor=none;gradientDirection=north;strokeWidth=2;shape=mxgraph.networks.bus;gradientColor=none;gradientDirection=north;fontColor=#ffffff;perimeter=backbonePerimeter;backboneSize=20;" parent="1" vertex="1">
          <mxGeometry x="140" y="245" width="300" height="20" as="geometry"/>
        </mxCell>
        <mxCell id="cXb8icBzrVfv2w_FcFVm-14" value="" style="strokeColor=#6881B3;edgeStyle=none;rounded=0;endArrow=none;html=1;strokeWidth=2;" parent="1" source="1LGlpPfX4pICpEShjhQJ-3" target="cXb8icBzrVfv2w_FcFVm-13" edge="1">
          <mxGeometry relative="1" as="geometry">
            <mxPoint x="220" y="185" as="sourcePoint"/>
          </mxGeometry>
        </mxCell>
        <mxCell id="cXb8icBzrVfv2w_FcFVm-15" value="" style="strokeColor=#6881B3;edgeStyle=none;rounded=0;endArrow=none;html=1;strokeWidth=2;" parent="1" edge="1">
          <mxGeometry relative="1" as="geometry">
            <mxPoint x="250" y="185" as="sourcePoint"/>
            <mxPoint x="250" y="245" as="targetPoint"/>
          </mxGeometry>
        </mxCell>
        <mxCell id="cXb8icBzrVfv2w_FcFVm-16" value="" style="strokeColor=#6881B3;edgeStyle=none;rounded=0;endArrow=none;html=1;strokeWidth=2;" parent="1" edge="1">
          <mxGeometry relative="1" as="geometry">
            <mxPoint x="310" y="185" as="sourcePoint"/>
            <mxPoint x="310" y="245" as="targetPoint"/>
          </mxGeometry>
        </mxCell>
        <mxCell id="cXb8icBzrVfv2w_FcFVm-17" value="" style="strokeColor=#6881B3;edgeStyle=none;rounded=0;endArrow=none;html=1;strokeWidth=2;" parent="1" edge="1">
          <mxGeometry relative="1" as="geometry">
            <mxPoint x="370" y="185" as="sourcePoint"/>
            <mxPoint x="370" y="245" as="targetPoint"/>
          </mxGeometry>
        </mxCell>
        <mxCell id="cXb8icBzrVfv2w_FcFVm-19" value="" style="strokeColor=#6881B3;edgeStyle=none;rounded=0;endArrow=none;html=1;strokeWidth=2;exitX=0.5;exitY=0;exitDx=0;exitDy=0;" parent="1" source="1LGlpPfX4pICpEShjhQJ-2" target="cXb8icBzrVfv2w_FcFVm-13" edge="1">
          <mxGeometry relative="1" as="geometry">
            <mxPoint x="280" y="325" as="sourcePoint"/>
          </mxGeometry>
        </mxCell>
        <mxCell id="cXb8icBzrVfv2w_FcFVm-22" value="&lt;br&gt;&lt;br&gt;cptnod-0&lt;br&gt;&lt;br&gt;192.168.67.30" style="whiteSpace=wrap;html=1;aspect=fixed;" parent="1" vertex="1">
          <mxGeometry x="340" y="340" width="90" height="90" as="geometry"/>
        </mxCell>
        <mxCell id="cXb8icBzrVfv2w_FcFVm-24" value="&lt;br&gt;&lt;br&gt;cptnod-1&lt;br&gt;&lt;br&gt;192.168.67.31" style="whiteSpace=wrap;html=1;aspect=fixed;" parent="1" vertex="1">
          <mxGeometry x="440" y="340" width="90" height="90" as="geometry"/>
        </mxCell>
        <mxCell id="cXb8icBzrVfv2w_FcFVm-25" value="192.168.67.11&lt;br&gt;&lt;br&gt;master-1&lt;br&gt;&lt;br&gt;&lt;br&gt;" style="whiteSpace=wrap;html=1;aspect=fixed;" parent="1" vertex="1">
          <mxGeometry x="290" y="540" width="90" height="90" as="geometry"/>
        </mxCell>
        <mxCell id="cXb8icBzrVfv2w_FcFVm-26" value="192.168.67.10&lt;br&gt;&lt;br&gt;master-0&lt;br&gt;&lt;br&gt;&lt;br&gt;" style="whiteSpace=wrap;html=1;aspect=fixed;direction=south;" parent="1" vertex="1">
          <mxGeometry x="180" y="540" width="90" height="90" as="geometry"/>
        </mxCell>
        <mxCell id="cXb8icBzrVfv2w_FcFVm-28" value="192.168.67.12&lt;br&gt;&lt;br&gt;master-2&lt;br&gt;&lt;br&gt;&lt;br&gt;" style="whiteSpace=wrap;html=1;aspect=fixed;" parent="1" vertex="1">
          <mxGeometry x="390" y="540" width="90" height="90" as="geometry"/>
        </mxCell>
        <mxCell id="cXb8icBzrVfv2w_FcFVm-30" value="&lt;br&gt;&lt;br&gt;bootstrap&lt;br&gt;&lt;br&gt;192.168.67.253" style="whiteSpace=wrap;html=1;aspect=fixed;" parent="1" vertex="1">
          <mxGeometry x="240" y="340" width="90" height="90" as="geometry"/>
        </mxCell>
        <mxCell id="cXb8icBzrVfv2w_FcFVm-31" value="virtual switch: vSwitchocp67 (192.168.67.0/24)" style="html=1;fillColor=#CCCCCC;strokeColor=#6881B3;gradientColor=none;gradientDirection=north;strokeWidth=2;shape=mxgraph.networks.bus;gradientColor=none;gradientDirection=north;fontColor=#ffffff;perimeter=backbonePerimeter;backboneSize=20;" parent="1" vertex="1">
          <mxGeometry x="140" y="470" width="400" height="20" as="geometry"/>
        </mxCell>
        <mxCell id="cXb8icBzrVfv2w_FcFVm-32" value="" style="strokeColor=#6881B3;edgeStyle=none;rounded=0;endArrow=none;html=1;strokeWidth=2;exitX=0.5;exitY=1;exitDx=0;exitDy=0;" parent="1" source="1LGlpPfX4pICpEShjhQJ-2" target="cXb8icBzrVfv2w_FcFVm-31" edge="1">
          <mxGeometry relative="1" as="geometry">
            <mxPoint x="230" y="410" as="sourcePoint"/>
          </mxGeometry>
        </mxCell>
        <mxCell id="cXb8icBzrVfv2w_FcFVm-33" value="" style="strokeColor=#6881B3;edgeStyle=none;rounded=0;endArrow=none;html=1;strokeWidth=2;exitX=0.5;exitY=1;exitDx=0;exitDy=0;" parent="1" source="cXb8icBzrVfv2w_FcFVm-30" target="cXb8icBzrVfv2w_FcFVm-31" edge="1">
          <mxGeometry relative="1" as="geometry">
            <mxPoint x="290" y="410" as="sourcePoint"/>
          </mxGeometry>
        </mxCell>
        <mxCell id="cXb8icBzrVfv2w_FcFVm-34" value="" style="strokeColor=#6881B3;edgeStyle=none;rounded=0;endArrow=none;html=1;strokeWidth=2;exitX=0.5;exitY=1;exitDx=0;exitDy=0;" parent="1" source="cXb8icBzrVfv2w_FcFVm-22" target="cXb8icBzrVfv2w_FcFVm-31" edge="1">
          <mxGeometry relative="1" as="geometry">
            <mxPoint x="350" y="410" as="sourcePoint"/>
          </mxGeometry>
        </mxCell>
        <mxCell id="cXb8icBzrVfv2w_FcFVm-35" value="" style="strokeColor=#6881B3;edgeStyle=none;rounded=0;endArrow=none;html=1;strokeWidth=2;exitX=0.5;exitY=1;exitDx=0;exitDy=0;" parent="1" source="cXb8icBzrVfv2w_FcFVm-24" target="cXb8icBzrVfv2w_FcFVm-31" edge="1">
          <mxGeometry relative="1" as="geometry">
            <mxPoint x="410" y="410" as="sourcePoint"/>
          </mxGeometry>
        </mxCell>
        <mxCell id="cXb8icBzrVfv2w_FcFVm-36" value="" style="strokeColor=#6881B3;edgeStyle=none;rounded=0;endArrow=none;html=1;strokeWidth=2;exitX=0;exitY=0.5;exitDx=0;exitDy=0;" parent="1" source="cXb8icBzrVfv2w_FcFVm-26" target="cXb8icBzrVfv2w_FcFVm-31" edge="1">
          <mxGeometry relative="1" as="geometry">
            <mxPoint x="230" y="550" as="sourcePoint"/>
          </mxGeometry>
        </mxCell>
        <mxCell id="cXb8icBzrVfv2w_FcFVm-37" value="" style="strokeColor=#6881B3;edgeStyle=none;rounded=0;endArrow=none;html=1;strokeWidth=2;exitX=0.5;exitY=0;exitDx=0;exitDy=0;" parent="1" source="cXb8icBzrVfv2w_FcFVm-25" target="cXb8icBzrVfv2w_FcFVm-31" edge="1">
          <mxGeometry relative="1" as="geometry">
            <mxPoint x="290" y="550" as="sourcePoint"/>
          </mxGeometry>
        </mxCell>
        <mxCell id="cXb8icBzrVfv2w_FcFVm-39" value="" style="strokeColor=#6881B3;edgeStyle=none;rounded=0;endArrow=none;html=1;strokeWidth=2;exitX=0.5;exitY=0;exitDx=0;exitDy=0;" parent="1" source="cXb8icBzrVfv2w_FcFVm-28" target="cXb8icBzrVfv2w_FcFVm-31" edge="1">
          <mxGeometry relative="1" as="geometry">
            <mxPoint x="410" y="550" as="sourcePoint"/>
          </mxGeometry>
        </mxCell>
        <mxCell id="cXb8icBzrVfv2w_FcFVm-50" value="iconos.be" style="html=1;fillColor=#CCCCCC;strokeColor=#6881B3;gradientColor=none;gradientDirection=north;strokeWidth=2;shape=mxgraph.networks.bus;gradientColor=none;gradientDirection=north;fontColor=#ffffff;perimeter=backbonePerimeter;backboneSize=20;" parent="1" vertex="1">
          <mxGeometry x="140" y="55" width="260" height="20" as="geometry"/>
        </mxCell>
        <mxCell id="cXb8icBzrVfv2w_FcFVm-51" value="" style="strokeColor=#6881B3;edgeStyle=none;rounded=0;endArrow=none;html=1;strokeWidth=2;" parent="1" target="cXb8icBzrVfv2w_FcFVm-50" edge="1">
          <mxGeometry relative="1" as="geometry">
            <mxPoint x="180" y="-5" as="sourcePoint"/>
          </mxGeometry>
        </mxCell>
        <mxCell id="cXb8icBzrVfv2w_FcFVm-52" value="" style="strokeColor=#6881B3;edgeStyle=none;rounded=0;endArrow=none;html=1;strokeWidth=2;" parent="1" target="cXb8icBzrVfv2w_FcFVm-50" edge="1">
          <mxGeometry relative="1" as="geometry">
            <mxPoint x="240" y="-5" as="sourcePoint"/>
          </mxGeometry>
        </mxCell>
        <mxCell id="cXb8icBzrVfv2w_FcFVm-53" value="" style="strokeColor=#6881B3;edgeStyle=none;rounded=0;endArrow=none;html=1;strokeWidth=2;" parent="1" target="cXb8icBzrVfv2w_FcFVm-50" edge="1">
          <mxGeometry relative="1" as="geometry">
            <mxPoint x="300" y="-5" as="sourcePoint"/>
          </mxGeometry>
        </mxCell>
        <mxCell id="cXb8icBzrVfv2w_FcFVm-54" value="" style="strokeColor=#6881B3;edgeStyle=none;rounded=0;endArrow=none;html=1;strokeWidth=2;" parent="1" target="cXb8icBzrVfv2w_FcFVm-50" edge="1">
          <mxGeometry relative="1" as="geometry">
            <mxPoint x="360" y="-5" as="sourcePoint"/>
          </mxGeometry>
        </mxCell>
        <mxCell id="cXb8icBzrVfv2w_FcFVm-55" value="" style="strokeColor=#6881B3;edgeStyle=none;rounded=0;endArrow=none;html=1;strokeWidth=2;" parent="1" source="1LGlpPfX4pICpEShjhQJ-3" target="cXb8icBzrVfv2w_FcFVm-50" edge="1">
          <mxGeometry relative="1" as="geometry">
            <mxPoint x="180" y="120" as="sourcePoint"/>
          </mxGeometry>
        </mxCell>
        <mxCell id="cXb8icBzrVfv2w_FcFVm-56" value="" style="strokeColor=#6881B3;edgeStyle=none;rounded=0;endArrow=none;html=1;strokeWidth=2;" parent="1" target="cXb8icBzrVfv2w_FcFVm-50" edge="1">
          <mxGeometry relative="1" as="geometry">
            <mxPoint x="240" y="135" as="sourcePoint"/>
          </mxGeometry>
        </mxCell>
        <mxCell id="cXb8icBzrVfv2w_FcFVm-57" value="" style="strokeColor=#6881B3;edgeStyle=none;rounded=0;endArrow=none;html=1;strokeWidth=2;" parent="1" target="cXb8icBzrVfv2w_FcFVm-50" edge="1">
          <mxGeometry relative="1" as="geometry">
            <mxPoint x="300" y="135" as="sourcePoint"/>
          </mxGeometry>
        </mxCell>
        <mxCell id="cXb8icBzrVfv2w_FcFVm-58" value="" style="strokeColor=#6881B3;edgeStyle=none;rounded=0;endArrow=none;html=1;strokeWidth=2;" parent="1" target="cXb8icBzrVfv2w_FcFVm-50" edge="1">
          <mxGeometry relative="1" as="geometry">
            <mxPoint x="360" y="135" as="sourcePoint"/>
          </mxGeometry>
        </mxCell>
        <mxCell id="nsV0f66CwOUnEGxeGa50-1" value="internet" style="ellipse;shape=cloud;whiteSpace=wrap;html=1;" vertex="1" parent="1">
          <mxGeometry x="300" y="-80" width="120" height="80" as="geometry"/>
        </mxCell>
      </root>
    </mxGraphModel>
  </diagram>
</mxfile>
